<svg width="84" height="85" viewBox="0 0 84 85" fill="none" xmlns="http://www.w3.org/2000/svg">
<path d="M78.022 62.9355C67.5831 80.1033 49.3836 87.556 30.607 82.6181C13.4132 78.0964 0.503763 61.6221 0.0769142 43.6574C-0.332235 26.4372 10.2262 10.319 26.0913 3.9446C41.9466 -2.42589 60.7365 1.66329 72.0731 13.9515C84.522 27.4453 86.8064 45.6314 78.022 62.9355ZM34.1142 36.7209C31.3633 40.7916 31.2652 44.8974 34.4905 48.6576C37.353 51.9949 41.0826 53.0921 45.2914 51.3631C49.02 49.8314 51.0254 47.0068 51.1735 42.8987C51.321 38.8043 49.566 35.7687 45.9777 33.9757C41.7306 31.8535 37.9159 32.852 34.1142 36.7209ZM62.8231 53.181C62.3993 53.8948 61.9819 54.6124 61.5507 55.3216C60.1496 57.6261 58.2807 60.1832 61.6409 62.1292C65.0226 64.0876 66.3704 60.9772 67.6807 58.7952C74.0894 48.1226 73.7926 37.3814 67.6182 26.7277C66.3149 24.4789 64.8743 21.4456 61.5683 23.3249C58.1957 25.2421 60.1569 27.8128 61.5675 30.1118C65.967 37.2823 66.5017 44.7358 62.8231 53.181Z" fill="#6140C5"/>
</svg>
