<svg width="102" height="34" viewBox="0 0 102 34" fill="none" xmlns="http://www.w3.org/2000/svg">
<path d="M70.3187 25.3742C66.3234 32.3659 59.358 35.401 52.1716 33.39C45.5911 31.5485 40.6503 24.8393 40.4869 17.5231C40.3303 10.5101 44.3714 3.94586 50.4434 1.34986C56.5117 -1.24455 63.7031 0.420791 68.0419 5.42521C72.8064 10.9206 73.6807 18.327 70.3187 25.3742ZM53.514 14.6982C52.4611 16.356 52.4236 18.0281 53.658 19.5594C54.7535 20.9186 56.181 21.3654 57.7918 20.6613C59.2188 20.0375 59.9863 18.8872 60.043 17.2141C60.0995 15.5466 59.4278 14.3104 58.0545 13.5802C56.429 12.7159 54.969 13.1225 53.514 14.6982ZM64.5017 21.4016C64.3395 21.6923 64.1797 21.9846 64.0147 22.2734C63.4784 23.2119 62.7632 24.2533 64.0492 25.0458C65.3435 25.8434 65.8593 24.5766 66.3608 23.688C68.8136 19.3416 68.7 14.9672 66.3369 10.6284C65.8381 9.71255 65.2867 8.47725 64.0214 9.2426C62.7306 10.0234 63.4812 11.0703 64.0211 12.0066C65.7049 14.9268 65.9096 17.9622 64.5017 21.4016Z" fill="#6140C5"/>
<path d="M21.381 25.2301C21.091 23.2018 20.6486 21.3353 20.6214 19.462C20.5301 13.1653 20.5867 6.86622 20.5867 0.417908C22.2382 0.417908 23.7869 0.417908 25.5326 0.417908C25.5326 3.08294 25.5294 5.70664 25.5334 8.33033C25.5398 12.5327 25.4603 16.7381 25.5841 20.9366C25.7253 25.7246 27.6661 27.6132 32.1487 27.6238C34.3624 27.629 36.5762 27.6247 38.8417 27.6247C38.8417 29.4409 38.8417 30.9863 38.8417 32.8206C34.9164 32.6501 31.0021 33.48 27.1783 32.0145C24.1817 30.8661 22.5403 28.3833 21.381 25.2301Z" fill="#4B4B4B"/>
<path d="M76.4799 22.3567C76.4618 14.9383 76.4618 7.70434 76.4618 0.369934C77.9888 0.369934 79.4354 0.369934 81.1305 0.369934C81.1638 1.07507 81.2225 1.78588 81.227 2.49708C81.2676 8.80373 81.197 15.1136 81.3671 21.4161C81.4866 25.8423 83.3576 27.5781 87.5076 27.6246C89.6743 27.6489 91.8412 27.6518 94.0079 27.6763C94.1208 27.6776 94.2325 27.7922 94.3889 27.8783C94.3889 29.4558 94.3889 31.056 94.3889 32.6984C91.1899 32.6984 88.0565 32.9917 84.9914 32.63C80.3436 32.0815 77.5689 28.5428 76.4799 22.3567Z" fill="#4A4A4A"/>
<path d="M7.19171 0.90453C10.8724 0.569358 14.409 0.291314 18.1144 0C18.1144 2.01278 18.1144 3.65141 18.1144 5.47673C15.751 5.47673 13.4083 5.46442 11.0657 5.47956C7.39768 5.50327 5.41328 7.18967 5.11998 11.1168C4.82774 15.0297 4.93351 18.9776 4.89936 22.9105C4.8712 26.1528 4.89361 29.3957 4.89361 32.7444C3.22858 32.7444 1.72618 32.7444 0.239157 32.7444C0.143915 32.6124 -0.00114368 32.5051 6.80159e-06 32.3996C0.0790734 25.1455 -0.0329744 17.8799 0.333578 10.6418C0.563859 6.09451 2.75065 2.57102 7.19171 0.90453Z" fill="#4B4B4B"/>
<path d="M102 30.225C102 31.1614 102 31.9031 102 32.7755C100.357 32.7755 98.799 32.7755 97.1482 32.7755C97.1482 21.991 97.1482 11.2506 97.1482 0.378052C98.7236 0.378052 100.272 0.378052 102 0.378052C102 10.2961 102 20.1632 102 30.225Z" fill="#4D4D4D"/>
<path d="M10.747 14.5229C12.1703 13.6371 13.3232 13.8391 14.1943 15.1336C14.9692 16.2853 14.8839 17.6377 13.8252 18.3476C13.0674 18.8558 11.7646 19.0241 10.9312 18.6951C9.49785 18.1293 9.46501 16.3171 10.747 14.5229Z" fill="#6747C7"/>
</svg>
