<svg width="30" height="24" viewBox="0 0 24 24" fill="none" xmlns="http://www.w3.org/2000/svg">
<mask id="mask0_5_2669" style="mask-type:luminance" maskUnits="userSpaceOnUse" x="0" y="0" width="24" height="24">
<path d="M24 0H0V24H24V0Z" fill="white"/>
</mask>
<g mask="url(#mask0_5_2669)">
<path d="M23.52 12.2728C23.52 11.4219 23.4437 10.6037 23.3018 9.81818H12V14.46H18.4582C18.18 15.96 17.3346 17.2309 16.0637 18.0819V21.0928H19.9418C22.2109 19.0037 23.52 15.9273 23.52 12.2728Z" fill="#4285F4"/>
<path d="M12.001 23.9999C15.241 23.9999 17.9573 22.9253 19.9427 21.0927L16.0646 18.0817C14.9901 18.8017 13.6155 19.2271 12.001 19.2271C8.8755 19.2271 6.2301 17.1162 5.28642 14.2799H1.27734V17.389C3.25194 21.3108 7.3101 23.9999 12.001 23.9999Z" fill="#34A853"/>
<path d="M5.2854 14.28C5.0454 13.56 4.90908 12.7909 4.90908 12C4.90908 11.2091 5.0454 10.44 5.2854 9.71998V6.6109H1.27632C0.463679 8.2309 0 10.0637 0 12C0 13.9363 0.463679 15.7691 1.27632 17.3891L5.2854 14.28Z" fill="#FBBC04"/>
<path d="M12.001 4.77276C13.7627 4.77276 15.3446 5.37816 16.5883 6.56724L20.0301 3.1254C17.9519 1.18908 15.2355 0 12.001 0C7.3101 0 3.25194 2.68908 1.27734 6.61092L5.28642 9.72C6.2301 6.88368 8.8755 4.77276 12.001 4.77276Z" fill="#E94235"/>
</g>
</svg>
