<?xml version="1.0" encoding="UTF-8"?>
<svg version="1.1" xmlns="http://www.w3.org/2000/svg" width="286" height="256">
<path d="M0 0 C16.93580338 16.4691767 28.240163 36.99387775 28.88330078 60.90991211 C29.09375204 87.8189756 19.06528584 109.11754501 0.41015625 128.34375 C-26.60969912 155.46673459 -65.76200422 165.24547341 -102.93359375 165.4921875 C-106.58984375 165.34375 -106.58984375 165.34375 -110.43359375 164.6953125 C-117.67634829 163.50269439 -122.53102472 163.65406588 -128.74951172 167.85546875 C-131.65395069 170.01022188 -134.48458752 172.24432553 -137.29345703 174.52197266 C-141.32801027 177.72267819 -145.55402743 180.64933086 -149.77734375 183.59375 C-150.61894043 184.18381836 -151.46053711 184.77388672 -152.32763672 185.38183594 C-170.97733246 198.35395393 -170.97733246 198.35395393 -179.58984375 199.34375 C-181.89308703 194.92781954 -181.49679563 192.39947194 -180.21484375 187.65625 C-180.03856445 186.99214111 -179.86228516 186.32803223 -179.68066406 185.64379883 C-177.43012071 177.37865082 -174.82295573 169.20596399 -172.23291016 161.04223633 C-171.89179199 159.95966553 -171.55067383 158.87709473 -171.19921875 157.76171875 C-170.88952148 156.79000732 -170.57982422 155.8182959 -170.26074219 154.81713867 C-169.45895019 152.28831441 -169.45895019 152.28831441 -169.58984375 149.34375 C-170.93175781 148.61671875 -170.93175781 148.61671875 -172.30078125 147.875 C-179.99695174 143.6369783 -186.93495139 139.12965641 -193.58984375 133.34375 C-194.83701172 132.29574219 -194.83701172 132.29574219 -196.109375 131.2265625 C-212.39293117 117.16917607 -226.14169416 96.4238401 -227.81103516 74.42944336 C-228.84399121 46.30007211 -221.76602769 24.42301441 -203 3.44921875 C-151.41893788 -50.70710932 -53.79765356 -49.79053832 0 0 Z " fill="#3E2723" transform="translate(227.58984375,46.65625)"/>
<path d="M0 0 C2.97897269 1.03917652 4.47562792 2.01229385 5.96899414 4.82519531 C8.3794545 10.43522134 10.61496546 16.09225979 12.75 21.8125 C14.84581001 27.41268067 16.96968872 32.98730008 19.296875 38.49609375 C19.85036621 39.82000122 19.85036621 39.82000122 20.41503906 41.1706543 C21.1174157 42.84045835 21.83215406 44.50513865 22.56152344 46.16333008 C24.73484888 51.36519436 26.03271861 56.34064211 25 62 C22.49574297 64.36115663 20.77163668 64.84943675 17.4375 65.5 C15 65 15 65 12.875 62.9375 C11 60 11 60 8 53 C0.41 52.67 -7.18 52.34 -15 52 C-15.495 54.475 -15.495 54.475 -16 57 C-17.42369071 60.1568794 -18.54753173 62.54753173 -21 65 C-24.18336574 65.34601802 -26.38881266 65.24125816 -29.375 64.0625 C-31.49096924 61.37684673 -31.46690853 59.20822033 -31.40136719 55.8605957 C-30.52758665 49.63304916 -27.80789741 43.84915793 -25.4375 38.0625 C-24.88141139 36.67720547 -24.32664931 35.29137773 -23.77319336 33.9050293 C-22.94928896 31.84320115 -22.12384898 29.78210379 -21.29170227 27.72358704 C-19.73650941 23.87394114 -18.24107672 20.0112989 -16.8203125 16.109375 C-16.51552979 15.28042725 -16.21074707 14.45147949 -15.89672852 13.59741211 C-15.36031054 12.12818887 -14.83389591 10.65525385 -14.32006836 9.17797852 C-11.62016142 1.92865083 -7.7466201 -0.96832751 0 0 Z " fill="#FBE73A" transform="translate(104,81)"/>
<path d="M0 0 C4.18384438 0.76846121 5.43864092 2.24357892 8.0625 5.5625 C8.78046102 8.3368432 8.85202817 11.01883546 8.875 13.875 C8.91270508 14.98584961 8.91270508 14.98584961 8.95117188 16.11914062 C9.00968443 17.93302969 9.03904349 19.74781903 9.0625 21.5625 C9.60140869 20.99217041 10.14031738 20.42184082 10.69555664 19.83422852 C13.1560429 17.24869985 15.63997235 14.68694082 18.125 12.125 C18.97255859 11.22716797 19.82011719 10.32933594 20.69335938 9.40429688 C27.85173481 2.08009035 27.85173481 2.08009035 31.99609375 1.3359375 C35.0625 1.5625 35.0625 1.5625 38.0625 3.625 C40.0625 6.5625 40.0625 6.5625 40.1953125 9.23828125 C38.46750914 14.30849043 34.82697267 17.12820328 30.9375 20.6875 C29.42383926 22.07396236 27.92059819 23.4719149 26.4296875 24.8828125 C25.76050293 25.49398926 25.09131836 26.10516602 24.40185547 26.73486328 C22.83015575 28.46245324 22.83015575 28.46245324 23.22460938 30.61230469 C24.53786238 33.66890871 26.61739174 36.11708404 28.6875 38.6875 C29.59509705 39.84529948 30.50133562 41.00416509 31.40625 42.1640625 C31.85484375 42.73672852 32.3034375 43.30939453 32.765625 43.89941406 C34.60831257 46.26243886 36.41635848 48.64532735 38.1875 51.0625 C38.74695313 51.8153125 39.30640625 52.568125 39.8828125 53.34375 C41.29713032 56.00379147 41.4450743 57.58907447 41.0625 60.5625 C39 63.4375 39 63.4375 36.0625 65.5625 C32.82421875 65.73828125 32.82421875 65.73828125 29.0625 64.5625 C26.28068167 61.96084832 24.14255704 58.96934928 21.9375 55.875 C20.74813023 54.26638383 19.55803971 52.65830029 18.3671875 51.05078125 C17.80870117 50.28459473 17.25021484 49.5184082 16.67480469 48.72900391 C14.57588015 45.90861378 12.34860982 43.23250373 10.0625 40.5625 C8.53091641 42.09408359 8.93544747 43.50974721 8.921875 45.640625 C8.90253906 46.47207031 8.88320312 47.30351563 8.86328125 48.16015625 C8.82973057 49.91253407 8.81122148 51.66527175 8.80859375 53.41796875 C8.67709431 57.90971294 8.51461498 59.97069501 5.7109375 63.640625 C3.0625 65.5625 3.0625 65.5625 -0.0625 66.0625 C-2.9375 65.5625 -2.9375 65.5625 -4.75 64.25 C-7.02873383 61.01179929 -7.07517612 58.06497698 -7.11450195 54.23657227 C-7.12733719 53.14856827 -7.14017242 52.06056427 -7.15339661 50.93959045 C-7.16078354 49.76456467 -7.16817047 48.58953888 -7.17578125 47.37890625 C-7.183853 46.17185532 -7.19192474 44.96480438 -7.20024109 43.72117615 C-7.21407766 41.16658972 -7.22480172 38.61198484 -7.23266602 36.05737305 C-7.24991618 32.14401531 -7.29381215 28.23149413 -7.33789062 24.31835938 C-7.34801418 21.83854789 -7.35653134 19.35872921 -7.36328125 16.87890625 C-7.38078934 15.70590469 -7.39829742 14.53290314 -7.41633606 13.32435608 C-7.41341049 12.23319992 -7.41048492 11.14204376 -7.4074707 10.01782227 C-7.41333694 9.05868423 -7.41920319 8.0995462 -7.42524719 7.11134338 C-6.59097185 2.75163157 -4.26837096 0.81734763 0 0 Z " fill="#F9E53A" transform="translate(180.9375,80.4375)"/>
<path d="M0 0 C0.96147949 -0.00145523 1.92295898 -0.00291046 2.91357422 -0.00440979 C4.94436679 -0.00275139 6.97517201 0.00880331 9.00585938 0.02954102 C12.11382448 0.05848966 15.22008314 0.05014977 18.328125 0.03710938 C20.30209162 0.04334711 22.27605286 0.05173832 24.25 0.0625 C25.64387939 0.05809654 25.64387939 0.05809654 27.06591797 0.05360413 C33.48421501 0.14742777 33.48421501 0.14742777 36.70898438 1.90209961 C38.46009984 3.87331217 38.66463914 4.87991079 38.625 7.49609375 C38.6353125 8.17671875 38.645625 8.85734375 38.65625 9.55859375 C38.125 11.49609375 38.125 11.49609375 36.578125 13.234375 C33.1957825 14.97401931 30.0788196 14.82012396 26.375 14.68359375 C25.67761719 14.67005859 24.98023438 14.65652344 24.26171875 14.64257812 C22.54914459 14.60738825 20.83697059 14.5535853 19.125 14.49609375 C19.15529297 15.15391846 19.18558594 15.81174316 19.21679688 16.48950195 C19.72442433 27.71490207 20.2212743 38.94692298 20.375 50.18359375 C20.4069043 51.32018433 20.4069043 51.32018433 20.43945312 52.47973633 C20.46964291 57.23408911 19.67165114 60.4721377 17.125 64.49609375 C14.25029507 65.93344621 12.30605412 65.87782024 9.125 65.49609375 C6.61375447 63.33984548 5.29266927 61.57935043 4.77966309 58.26498413 C4.6614295 55.48301151 4.67575149 52.72919981 4.734375 49.9453125 C4.74003479 48.93136917 4.74569458 47.91742584 4.75152588 46.87275696 C4.77387002 43.64255039 4.82406402 40.41346358 4.875 37.18359375 C4.89506748 34.99025042 4.91331782 32.79688967 4.9296875 30.60351562 C4.97372821 25.23399462 5.04062084 19.8651242 5.125 14.49609375 C4.08859375 14.5425 3.0521875 14.58890625 1.984375 14.63671875 C0.61461221 14.6742465 -0.75518182 14.71064559 -2.125 14.74609375 C-3.14787109 14.79636719 -3.14787109 14.79636719 -4.19140625 14.84765625 C-7.65511666 14.91491276 -9.5153231 14.76413322 -12.328125 12.66796875 C-14.43248367 9.71336415 -14.46694451 8.04776083 -13.875 4.49609375 C-10.4092635 -0.78927409 -5.72329591 -0.0691904 0 0 Z " fill="#FBE73A" transform="translate(44.875,80.50390625)"/>
<path d="M0 0 C2.16370402 1.61457559 2.90907973 2.45939684 3.36076355 5.14506531 C3.35410172 5.97335342 3.34743988 6.80164154 3.34057617 7.6550293 C3.34034958 8.59577805 3.34012299 9.53652679 3.33988953 10.50578308 C3.32440567 11.51836685 3.30892181 12.53095062 3.29296875 13.57421875 C3.28872391 14.61318802 3.28447906 15.65215729 3.28010559 16.72261047 C3.26329849 20.04450276 3.22564196 23.36579075 3.1875 26.6875 C3.17245582 28.93814229 3.15876695 31.18879407 3.14648438 33.43945312 C3.11338836 38.95984197 3.06316869 44.47987782 3 50 C3.88522339 49.97643433 3.88522339 49.97643433 4.78833008 49.95239258 C7.46295586 49.89002061 10.13742864 49.85100343 12.8125 49.8125 C14.2056543 49.77479492 14.2056543 49.77479492 15.62695312 49.73632812 C16.51962891 49.72666016 17.41230469 49.71699219 18.33203125 49.70703125 C19.15421143 49.6913208 19.9763916 49.67561035 20.82348633 49.65942383 C23.52806216 50.08263003 24.38142681 50.82543082 26 53 C26.5 55.9375 26.5 55.9375 26 59 C23.32419092 61.73022183 21.62990551 62.89387435 17.83374023 63.53344727 C10.80509996 63.59916279 10.80509996 63.59916279 8.45239258 63.57641602 C6.43859824 63.56250759 4.42942079 63.59669343 2.41601562 63.63476562 C1.14306641 63.63283203 -0.12988281 63.63089844 -1.44140625 63.62890625 C-2.60357666 63.62963135 -3.76574707 63.63035645 -4.96313477 63.63110352 C-8 63 -8 63 -10.38330078 60.70141602 C-12.62949025 56.94815621 -12.46679011 53.61134192 -12.3125 49.375 C-12.29413086 48.49924316 -12.27576172 47.62348633 -12.25683594 46.72119141 C-12.2111209 44.68891904 -12.15617711 42.65684262 -12.09423828 40.625 C-12.00488089 37.18774983 -11.95916143 33.75313876 -11.92692566 30.31503296 C-11.89401283 27.13174349 -11.84244417 23.94890699 -11.78744507 20.76593018 C-11.76250591 19.17352324 -11.7434716 17.58101274 -11.7303772 15.98846436 C-11.70903114 13.7284913 -11.66223109 11.47036481 -11.609375 9.2109375 C-11.5779541 7.23552979 -11.5779541 7.23552979 -11.54589844 5.22021484 C-11 2 -11 2 -9.18457031 0.04150391 C-5.85022858 -1.54815879 -3.50654462 -0.89257499 0 0 Z " fill="#FCE83A" transform="translate(145,82)"/>
<path d="M0 0 C0.66 0 1.32 0 2 0 C3.00577013 2.76886123 4.00480147 5.53984104 5 8.3125 C5.28617188 9.09818359 5.57234375 9.88386719 5.8671875 10.69335938 C6.13789062 11.45068359 6.40859375 12.20800781 6.6875 12.98828125 C7.06455078 14.03302612 7.06455078 14.03302612 7.44921875 15.09887695 C8 17 8 17 8 20 C3.38 20 -1.24 20 -6 20 C-4.63125844 13.04223041 -2.5466871 6.61396893 0 0 Z " fill="#483124" transform="translate(100,100)"/>
</svg>
